<svg width="24" height="23" viewBox="0 0 24 23" fill="none" xmlns="http://www.w3.org/2000/svg">
<path d="M11.625 18.375L10.7929 18.9297C11.0374 19.2964 11.493 19.4598 11.9148 19.3321C12.3365 19.2044 12.625 18.8157 12.625 18.375H11.625ZM10.5618 16.7802L9.72977 17.3349L9.72977 17.3349L10.5618 16.7802ZM3.95833 5H8.75V3H3.95833V5ZM10.625 6.875V18.375H12.625V6.875H10.625ZM4 14.5417V4.95833H2V14.5417H4ZM12.4571 17.8203L11.3939 16.2255L9.72977 17.3349L10.7929 18.9297L12.4571 17.8203ZM8.16968 14.5H3.95833V16.5H8.16968V14.5ZM11.3939 16.2255C10.6752 15.1475 9.4653 14.5 8.16968 14.5V16.5C8.79659 16.5 9.38203 16.8133 9.72977 17.3349L11.3939 16.2255ZM2 14.5417C2 15.6232 2.87678 16.5 3.95833 16.5V14.5C3.98135 14.5 4 14.5187 4 14.5417H2ZM8.75 5C9.78553 5 10.625 5.83947 10.625 6.875H12.625C12.625 4.7349 10.8901 3 8.75 3V5ZM3.95833 3C2.87678 3 2 3.87678 2 4.95833H4C4 4.98135 3.98134 5 3.95833 5V3Z" fill="white"/>
<path d="M11.625 18.375H10.625C10.625 18.8157 10.9135 19.2044 11.3352 19.3321C11.757 19.4598 12.2126 19.2964 12.4571 18.9297L11.625 18.375ZM12.6882 16.7802L13.5202 17.3349H13.5202L12.6882 16.7802ZM19.2917 3H14.5V5H19.2917V3ZM10.625 6.875V18.375H12.625V6.875H10.625ZM21.25 14.5417V4.95833H19.25V14.5417H21.25ZM12.4571 18.9297L13.5202 17.3349L11.8561 16.2255L10.7929 17.8203L12.4571 18.9297ZM15.0803 16.5H19.2917V14.5H15.0803V16.5ZM13.5202 17.3349C13.868 16.8133 14.4534 16.5 15.0803 16.5V14.5C13.7847 14.5 12.5748 15.1475 11.8561 16.2255L13.5202 17.3349ZM19.25 14.5417C19.25 14.5187 19.2687 14.5 19.2917 14.5V16.5C20.3732 16.5 21.25 15.6232 21.25 14.5417H19.25ZM14.5 3C12.3599 3 10.625 4.7349 10.625 6.875H12.625C12.625 5.83947 13.4645 5 14.5 5V3ZM19.2917 5C19.2687 5 19.25 4.98135 19.25 4.95833H21.25C21.25 3.87677 20.3732 3 19.2917 3V5Z" fill="white"/>
</svg>
