<svg width="23" height="23" viewBox="0 0 23 23" fill="none" xmlns="http://www.w3.org/2000/svg">
<path d="M5.75 10.5417L5.75 3.83333C5.75 3.30406 6.17906 2.875 6.70833 2.875L13.9563 2.875C14.2232 2.875 14.4781 2.98635 14.6595 3.18223L18.9115 7.77444C19.0755 7.95159 19.1667 8.18412 19.1667 8.42554V19.1667C19.1667 19.6959 18.7376 20.125 18.2083 20.125H12.4583" stroke="white" stroke-width="2" stroke-linecap="round" stroke-linejoin="round"/>
<path d="M3.83325 20.1248H6.22908L13.4166 12.9373L11.0208 10.5415L3.83325 17.729V20.1248Z" stroke="white" stroke-width="2" stroke-linecap="round" stroke-linejoin="round"/>
<path d="M8.625 13.4165L10.5417 15.3332" stroke="white" stroke-width="2" stroke-linecap="round" stroke-linejoin="round"/>
<path d="M19.1667 8.625L14.3751 8.625C13.8458 8.625 13.4167 8.19594 13.4167 7.66667L13.4167 2.875" stroke="white" stroke-width="2" stroke-linecap="round" stroke-linejoin="round"/>
</svg>
